<mxfile host="app.diagrams.net" modified="2024-07-03T08:17:08.140Z" agent="Mozilla/5.0 (Windows NT 10.0; Win64; x64) AppleWebKit/537.36 (KHTML, like Gecko) Chrome/126.0.0.0 Safari/537.36" version="24.5.4" etag="FecCS-DCxW8rmvSvwDzV" type="github">
  <diagram name="Page-1" id="eLwS3x9kB15g1fL843Lp">
    <mxGraphModel>
      <root>
        <mxCell id="0" />
        <mxCell id="1" parent="0" />
      </root>
    </mxGraphModel>
  </diagram>
</mxfile>
